<svg xmlns="http://www.w3.org/2000/svg" viewBox="0 0 71.94 80.04"><defs><style>.cls-1{fill:#fff;}.cls-2{fill:#38a550;}</style></defs><g id="Layer_2" data-name="Layer 2"><g id="OBJECTS"><g id="green2"><path class="cls-1" d="M70.7,40.73A33.84,33.84,0,0,1,17.55,68.51,33.14,33.14,0,0,1,14,65.68l47.8-47.8a34.44,34.44,0,0,1,2.83,3.53A33.74,33.74,0,0,1,70.7,40.73Z"/><path class="cls-2" d="M36.86,75.81A35,35,0,0,1,13.18,66.6l-1-.88L61.86,16.08l.88,1a35.31,35.31,0,0,1,2.93,3.66A35.09,35.09,0,0,1,36.86,75.81Zm-21-10.19c.78.67,1.6,1.29,2.42,1.87A32.6,32.6,0,0,0,63.63,22.12c-.57-.82-1.2-1.63-1.87-2.42Z"/><path class="cls-2" d="M13,65,7.71,70.21c-2,2,.84,5.2,3,3.35l.33-.31,5.46-5.45L63.58,20.7a32.16,32.16,0,0,0-2.83-3.53Z"/><path class="cls-2" d="M57.93,14l-47.8,47.8A33.14,33.14,0,0,1,7.3,58.26a33.84,33.84,0,0,1,47.09-47.1A33.51,33.51,0,0,1,57.93,14Z"/><path class="cls-2" d="M10.09,63.59l-.88-1A35.16,35.16,0,0,1,0,39,35.09,35.09,0,0,1,55.11,10.14a33.55,33.55,0,0,1,3.66,2.93l1,.88Zm25-57.23A32.58,32.58,0,0,0,8.32,57.54q.88,1.27,1.86,2.43L56.11,14.05c-.77-.66-1.59-1.28-2.42-1.86A32.34,32.34,0,0,0,35.08,6.36Z"/><path class="cls-2" d="M58.64,15.06l5.24-5.24c2-2-.84-5.19-3-3.35l-.34.31-5.44,5.45L8,59.32a32.28,32.28,0,0,0,2.83,3.54Z"/><path class="cls-1" d="M33.74,22.87a5.91,5.91,0,0,1,0,1l0,.24a5.47,5.47,0,0,1-1.58,3.14l-.25.26L16.75,42.68A5.51,5.51,0,0,1,9,34.89l11.5-11.5L9,11.89A5.52,5.52,0,0,1,9,4.1a5.53,5.53,0,0,1,7.8,0L31.87,19.22l.28.28a5.49,5.49,0,0,1,1.57,3.14h0A1.38,1.38,0,0,1,33.74,22.87Z"/><path class="cls-2" d="M36.22,22.66a3.6,3.6,0,0,0,0-.36,9.59,9.59,0,0,0-.19-1,7.6,7.6,0,0,0-.3-.92c-.06-.15-.12-.3-.19-.44a7.9,7.9,0,0,0-.74-1.25,6.54,6.54,0,0,0-.4-.52c-.14-.17-.29-.33-.45-.49l-.35-.33-15-15a8,8,0,0,0-11.32,0,8,8,0,0,0,0,11.31l9.74,9.74L7.19,33.13A8,8,0,0,0,18.51,44.44L33.6,29.35l.31-.29c.16-.16.31-.32.45-.49h0a7.47,7.47,0,0,0,.76-1,7.77,7.77,0,0,0,1.06-3,0,0,0,0,0,0,0l0-.31A7.32,7.32,0,0,0,36.22,22.66Zm-4.08,4.62-.25.26L16.75,42.68A5.51,5.51,0,0,1,9,34.89l11.5-11.5L9,11.89A5.52,5.52,0,0,1,9,4.1a5.53,5.53,0,0,1,7.8,0L31.87,19.22l.28.28a5.49,5.49,0,0,1,1.57,3.14h0a1.38,1.38,0,0,1,0,.22,5.91,5.91,0,0,1,0,1l0,.24A5.47,5.47,0,0,1,32.14,27.28Z"/><path class="cls-2" d="M37.82,54.83s0,0,0-.08a5.6,5.6,0,0,1,1.29-2l15.4-15.4a5.51,5.51,0,0,1,7.79,7.79l-11.5,11.5,11.5,11.5a5.51,5.51,0,1,1-7.79,7.79L39.38,60.79l-.25-.26a6,6,0,0,1-.62-.73A5.5,5.5,0,0,1,38,59h0a1.3,1.3,0,0,0-.08-.17l0-.07a5.93,5.93,0,0,1-.29-.9c0-.15,0-.3-.08-.46a1.52,1.52,0,0,1,0-.23,4.27,4.27,0,0,1,0-1l0-.26a.36.36,0,0,0,0-.11Z"/><path class="cls-1" d="M54.35,56.64l9.73-9.74a8,8,0,0,0,0-11.31,8,8,0,0,0-11.32,0L37.68,50.68h0a2.68,2.68,0,0,0-.3.28s0,0,0,0c-.2.2-.39.42-.58.64h0a8.43,8.43,0,0,0-.73,1.07,8.56,8.56,0,0,0-.55,1.19l-.15.46a1,1,0,0,0,0,.17l-.08.3a0,0,0,0,0,0,0l-.15.64,0,0s0,0,0,0l0,.3a7.52,7.52,0,0,0,0,1.5,3.18,3.18,0,0,0,0,.34,5.68,5.68,0,0,0,.12.67h0c0,.18.09.36.14.53a3,3,0,0,0,.13.39c0,.13.09.26.14.38h0l.15.33a7.17,7.17,0,0,0,.69,1.2,8.15,8.15,0,0,0,.89,1.07l.32.29L52.76,77.69A8,8,0,1,0,64.08,66.38ZM37.82,54.83s0,0,0-.08a5.6,5.6,0,0,1,1.29-2l15.4-15.4a5.51,5.51,0,0,1,7.79,7.79l-11.5,11.5,11.5,11.5a5.51,5.51,0,1,1-7.79,7.79L39.38,60.79l-.25-.26a6,6,0,0,1-.62-.73A5.5,5.5,0,0,1,38,59h0a1.3,1.3,0,0,0-.08-.17l0-.07a5.93,5.93,0,0,1-.29-.9c0-.15,0-.3-.08-.46a1.52,1.52,0,0,1,0-.23,4.27,4.27,0,0,1,0-1l0-.26a.36.36,0,0,0,0-.11Z"/><path class="cls-1" d="M35.36,58.93a5.44,5.44,0,0,1-.15-.54h0C35.26,58.58,35.31,58.76,35.36,58.93Z"/></g></g></g></svg>